<?xml version="1.0" encoding="UTF-8" standalone="no"?>
<svg
   xmlns="http://www.w3.org/2000/svg"
   width="80"
   height="80"
   viewBox="0 0 21.166666 21.166667"
   version="1.1">
  <g>
    <rect
       style="fill:#1153ab;stroke-width:0.264583;fill-opacity:1"
       width="21.166666"
       height="21.166666"
       x="0"
       y="0"
       rx="4.2333331"
       ry="4.2333331" />
    <g
       transform="matrix(0.13028755,0,0,0.13028755,1.8520833,1.8520833)">
      <path
         d="m 61.93,0 c -18.149,0.166 -36.091,7.542 -49.428,20.572 -24.346,23.653 -28.467,61.861 -9.5,90.199 1.488,2.308 3.117,4.383 4.834,6.479 l 55.883,72.479 c 2.012,2.617 5.112,4.146 8.418,4.146 3.306,0 6.406,-1.529 8.418,-4.146 L 136.44,117.25 c 1.715,-2.097 3.345,-4.172 4.834,-6.479 18.967,-28.338 14.846,-66.547 -9.5,-90.199 C 118.437,7.542 100.495,0.166 82.346,0 Z"
         style="fill:#ffffff" />
      <path
         d="m 72.14,67.4 c -11.782,0 -21.376,9.594 -21.376,21.376 v 17.1 h -8.55 v 42.75 h 59.853 v -42.75 h -8.55 v -17.1 c 0,-11.782 -9.594,-21.376 -21.376,-21.376 z m 0,8.55 c 7.068,0 12.825,5.758 12.825,12.826 v 17.1 H 59.313 v -17.1 c 0,-7.068 5.758,-12.826 12.825,-12.826 z"
         style="fill:#1153ab;fill-opacity:1" />
    </g>
  </g>
</svg> 